<svg xmlns="http://www.w3.org/2000/svg" width="358.2" height="262" viewBox="0 0 358.2 262"><path fill="#03979C" d="M128 224.3L26.7 197.5l-6.8-88 3.4-2.9C31 99.5 46.4 92.4 47 92.2l.1-.1c.8-.3 84.5-23 88.6-24.1 1.6-.4 2.8-.3 3.9.4 1.5 1 1.8 2.8 1.8 2.9v.3l-4.1 7.3 44.5 7.1-.3 1.7-46.9-7.4 5.1-9c-.1-.4-.4-1-1-1.3-.6-.4-1.4-.4-2.5-.2-4 1-85.6 23.3-88.4 24-1.1.5-16.1 7.4-23.3 14.2l-2.8 2.3 6.6 85.9 99.4 26.4 54.2-27.7.8 1.6-54.7 27.8z"/><path fill="#03979C" d="M127.6 131.7l-7.6-6.4c-.2-.2-3.9-4.6-2.8-9.1.6-2.6 2.8-4.6 6.3-5.9 9-3.4 52.5-13.3 54.3-13.7l.4 1.7c-.4.1-45.1 10.3-54.1 13.7-2.9 1.1-4.7 2.7-5.3 4.6-.9 3.3 2 7 2.3 7.5l6.8 5.7 49.5-12.2.4 1.7-50.2 12.4z"/><path fill="#03979C" d="M128.8 223.5H127v-91.2h-.7c-6.7-.4-9.8 1.1-11.2 2.5-1.5 1.4-1.5 3-1.5 3.1v.2c0 .3-2.4 24.8-4.8 41.3-.8 5.4-2.9 9.4-6.4 11.7-5.3 3.6-11.8 2.1-12 2-.1 0-17.9-3.5-33.7-7.1-6.8-1.6-12.7-7-17-15.7-3.2-6.5-4.4-12.4-4.5-12.7-.1-.3-4.8-27.1-6.9-37.9-.7-3.9-2.1-6.8-4.1-8-1.6-1.1-3-.8-3-.8l-.4-1.7L136 79.1l.4 1.7-111.7 29c.1.1.3.2.4.3 2.4 1.6 4 4.7 4.9 9.2 2.1 10.8 6.8 37.7 6.9 37.9 0 .2 4.8 23.4 20.2 26.9 15.9 3.8 33.5 7.1 33.7 7.1.1 0 6.1 1.4 10.7-1.7 3-2 4.9-5.6 5.6-10.5 2.3-16.2 4.6-40 4.7-41.2 0-.4.1-2.5 2-4.3 2.4-2.4 6.7-3.4 12.6-3h.6v-.9l1.1.3c.7.2 1.9.5 1.8 1.5-.1.5-.5.8-1.1.9v91.2z"/><path fill="#03979C" d="M118.8 130.8l-1.8-.2.9.1-.9-.1c0-.3.3-6.3-10-8.8-11.1-2.7-71.4-14.9-72-15l.3-1.7c.6.1 60.8 12.3 72 15 12.1 3 11.6 10.4 11.5 10.7zm-85 9.2H32v-23.7c0-.3 0-6.1 3.5-8.8 1.7-1.3 3.7-1.6 6.2-1l-.4 1.7c-2-.4-3.6-.3-4.8.7-2.8 2.1-2.8 7.4-2.8 7.4V140h.1z"/><path fill="#03979C" d="M121.6 113l-56.7-10.8c-2.9 0-5.1.8-6.6 2.3-2.3 2.3-2.2 5.5-2.2 5.6h-1.8c0-.2 0-4 2.8-6.9 1.9-1.9 4.6-2.9 7.9-2.9h.2l56.8 10.9-.4 1.8z"/><path fill="#03979C" d="M137.3 108.2l-54-11.3c-6.7 0-8.4 3.9-8.8 6.3l-1.7-.3c.4-2.3 2.2-7.7 10.6-7.7h.2l54 11.3-.3 1.7z"/><path fill="#03979C" d="M157.3 103.3L98.2 92.2c-6.6 0-8.3 3.3-8.7 5.3l-1.7-.4c.4-2 2.3-6.7 10.5-6.7h.2l59.2 11.1-.4 1.8zm20.8-5l-61.6-11.5c-3.2 0-5.6.8-7.1 2.3-1.8 1.7-1.8 3.8-1.8 3.9h-1.8c0-.1 0-2.9 2.2-5.1 1.9-1.9 4.7-2.9 8.5-2.9h.2l61.6 11.5-.2 1.8z"/><path fill="#03979C" d="M181.8 87.8L134 83.2c-6.3 0-8.1 2.8-8.7 4.4l-1.7-.5c.6-2.2 2.9-5.6 10.4-5.6l47.8 4.6v1.7zm153.4-44.3l1.8.1-11.6 166.1-1.8-.1 11.6-166.1z"/><path fill="#03979C" d="M241.6 226.2H239c-35.9-.6-45.2-13.6-52.7-24.1-1.5-2.2-3-4.2-4.5-6-3.2-3.7-5.6-3.8-5.9-3.8h-.9v-.9l5.9-154.3L337 41.5l-.1.9c-.5 7-.7 14.9-.9 22.6-.2 7.3-.4 14.3-.8 19.8-4.7 63.7-7.7 94-9.3 108.2-1.9 16.1-2.5 16.3-3.1 16.4h-.4c-.9-.2-1.9-.3-2.9-.3-4.7 0-10.2 2.2-17.1 4.8-13.3 5.3-31.4 12.3-60.8 12.3zm-64.9-35.4c1.2.3 3.6 1.2 6.3 4.2 1.6 1.9 3.1 3.9 4.6 6.2 7.2 10.2 16.3 22.8 51.3 23.4h2.6c29.1 0 47-6.9 60.1-11.9 7.1-2.8 12.8-4.9 17.8-4.9.9 0 1.7.1 2.5.2.8-2.9 3.8-20.2 11.4-122.9.4-5.5.6-12.4.8-19.7.2-7.4.5-15.1.9-21.8l-152.5-4.3-5.8 151.5z"/><path fill="#03979C" d="M242.6 226.8c-2.9 0-5.6-.1-8.4-.3-34.6-2.6-46.6-22.7-51-30.2-.5-.7-.8-1.4-1.1-1.8l-6.3-1.9v-.6c1.8-49.9 5.3-144.7 5.2-146.8-.2-2.4-.8-6.5-.8-6.6l-.2-1.1 156.4 4.3v.9c-.2 5.7-4.4 139.7-12.5 166.8l-.2.6h-.7s-2.4.2-6.9.3c-.9.1-3.9 1.1-7.6 2.4-12.6 4.7-38.9 14-65.9 14zm-65-35.5l5.6 1.7.2.3c.4.5.8 1.2 1.3 2.1 4.4 7.3 16 26.8 49.6 29.3 2.7.2 5.4.3 8.2.3 26.8 0 52.8-9.3 65.4-13.6 4.3-1.5 6.9-2.4 8-2.5 3.2-.2 5.4-.3 6.3-.4 7.6-27.1 11.9-153.1 12.2-164.9l-152.5-4.3c.2 1.4.6 3.9.6 5.7.4 2.5-4.4 134.4-4.9 146.3z"/><path fill="#03979C" d="M324.5 51.8l1.8.1-6.6 105.5-1.8-.1 6.6-105.5zm-7.3 111.1l1.8.2-1.4 14.6-1.8-.2 1.4-14.6zm-2.2 23l1.8.1-1.9 24.2-1.8-.1 1.9-24.2zm-129-141l1.8.1-5.5 128.2-1.8-.1L186 44.9zm70.9 129.4c-15 0-46.7-5.1-50.7-6.8-4-1.8-19.5-7.1-19.7-7.2l-.6-.2 3.2-76.7h.8c32.7-.4 122.8 6.7 123.7 6.7l.8.1v.8c-.1 2.8 0 6 .3 6.6.4.5.4 1.7-.5 12.3-.5 4.8-1 11.3-.8 12.2.4 1.2-.1 7.9-1.6 23.3l-.2 1.9c-.1 1.4-.4 6.4-.6 11.2-.2 3.1-.3 6.3-.5 8.7-.3 4.8-.3 4.8-1.2 4.8h-.5l-.1-.2c-1.9-.4-11.8-1-17.5-1h-1.5c-5.8.2-16.2 1.5-27.1 3.3-1.4 0-3.4.2-5.7.2zm-69.3-15.5c3 1.1 15.6 5.3 19.3 7 3.4 1.5 34.3 6.7 50 6.7 2.3 0 4.2-.1 5.5-.4 11-1.9 21.5-3.1 27.3-3.3 3.2-.1 9 .2 12.8.5 3.1.2 4.9.3 6 .5.2-2.1.4-7.2.6-11.5.3-5.1.5-9.8.6-11.3l.2-1.9c1.3-14 1.9-21.6 1.6-22.6-.3-.9 0-4.8.7-12.9.4-4.6.9-10.4.7-11.3-.5-1.1-.6-4.3-.5-6.6-9-.7-90.3-7-121.8-6.7l-3 73.8zm98.7 61.6c1 0 1-.4 0-.4-1 .1-1 .4 0 .4zm-2.3.9c.6 0 .6-.3 0-.3s-.6.3 0 .3zm-4.8.4c1.6 0 1.6-.7 0-.7s-1.6.7 0 .7zm-4.6.4c.7 0 .7-.3 0-.3s-.7.3 0 .3zm-3.7 1.2c.8 0 .8-.4 0-.4s-.8.4 0 .4zm-12.7 1.6c.8 0 .8-.4 0-.4s-.8.4 0 .4zm-10.3.3c.8 0 .8-.4 0-.4-.8.1-.8.4 0 .4zm8.5 0c1 0 1-.4 0-.4-.9.1-.9.4 0 .4zm63.5-14.2c.9 0 .9-.4 0-.4s-.9.4 0 .4z"/></svg>
