<svg xmlns="http://www.w3.org/2000/svg" width="358.2" height="262" viewBox="0 0 358.2 262"><path fill="#03979C" d="M253.3 182.8c-.1 0-.2 0-.3-.1l-19.4-8.6c-.4-.2-.6-.5-.5-.9 0-.1 1.1-9.4-4.4-10.9-.3-.1-.6-.1-.8-.1-3.7-.1-5.3 6-5.4 6.1-.1.3-.2.5-.5.6-.2.1-.5.1-.7 0L185 152.6c-.3-.1-.5-.5-.5-.8 0-.1-.1-9.3-5-10.6-.3-.1-.7-.1-1-.2-3.7-.1-4.7 5.9-4.7 6 0 .3-.2.5-.4.6-.2.1-.5.1-.8 0l-12.3-5.1c-.4-.2-.6-.5-.5-.9l9.7-71.2c.1-.4.4-.7.8-.8l95.2-11.8h.4l91.9 29.3c.4.1.7.5.6 1l-10.4 68c-.1.3-.3.6-.6.7l-93.8 26h-.3zm-18.4-10.1l18.5 8.3 92.9-25.7 10-66.5-91-29L171 71.5l-9.5 69.8 10.7 4.5c.6-2.1 2.2-6.5 6.3-6.4.4 0 .9.1 1.4.2 5.4 1.5 6.1 9.5 6.2 11.7l34.9 15.6c.7-2.1 2.8-6.6 6.8-6.4.4 0 .8.1 1.2.2 6.2 1.5 6.1 9.6 5.9 12z"/><path fill="#03979C" d="M265.3 103.4h-.2L170 72.2c-.5-.2-.7-.6-.6-1.1.2-.5.6-.7 1.1-.6l94.9 31.1 91.8-14.4c.5-.1.9.3 1 .7.1.5-.3.9-.7 1l-92.1 14.4c0 .1-.1.1-.1.1z"/><path fill="#03979C" d="M255.4 169h-.1c-.5-.1-.8-.5-.7-1l9.9-65.6c.1-.5.5-.8 1-.7.5.1.8.5.7 1l-9.9 65.6c-.1.4-.5.7-.9.7z"/><path fill="#03979C" d="M250 204.9c-.1 0-.2 0-.3-.1l-91.1-41.2c-.4-.2-.6-.5-.5-.9 1-6.3 2.9-18.7 3-20 0-.5.5-.8.9-.8.5 0 .8.5.8.9-.1 1.5-2.4 16.1-2.9 19.4l90.2 40.8 92-28.4 2.8-18.3c.1-.5.5-.8 1-.7.5.1.8.5.7 1l-2.8 18.8c0 .3-.3.6-.6.7l-92.9 28.7c-.1.1-.2.1-.3.1z"/><path fill="#03979C" d="M250 204.9h-.1c-.5-.1-.8-.5-.7-1l5.3-35.1c.1-.5.5-.8 1-.7.5.1.8.5.7 1l-5.3 35.1c-.1.4-.5.7-.9.7zM178.9 132.5c-.1-.1-.1 0 0 0z"/><g><path fill="#03979C" d="M178.3 142.9c-1.4 1-2.4 2.6-2.2 4.4 0 .2 1 .2 1 0 .4-1.7 1-3.2 2.4-4.3.1 0-.9-.3-1.2-.1z"/></g><g><path fill="#03979C" d="M227.4 164.4c-.2.2-.5.3-.7.5-.2.2-.3.4-.4.7-.3.6-.3 1.2-.2 1.9 0 .2.8.2.8 0 0-.5.1-1 .3-1.5.1-.3.2-.5.4-.8.1-.2.2-.5.4-.7 0-.1-.5-.2-.6-.1z"/></g><g><path fill="#03979C" d="M181.4 82.7c-1.5.6-2.8 1.4-4.1 2.4-1.3 1-2.9 2.2-3.8 3.7-.2.3 1 .3 1.2.1 2.7-2 4.7-4.5 7.8-5.9.3-.3-.9-.4-1.1-.3z"/></g><g><path fill="#03979C" d="M184.7 82.4c-2.1 2.4-4.5 4.6-6.6 7-.1.1.9.3 1.1.1 2.4-2.2 4.6-4.5 6.7-7 0-.1-1-.3-1.2-.1z"/></g><g><g fill="#03979C"><path d="M227.1 100.3v-.1c-.1 0-.1-.1-.2-.1-.1-.1-.2-.1-.3-.1-.4-.2-.9-.3-1.4-.5-.1-.1-.3-.2-.5-.1-.1.1-.1.3-.2.4 0 .1-.1.1-.1.2-.5-.8-1.5-1.4-2.3-1.8-.5-.2-1-.3-1.5-.3H220c-.2 0-.3 0-.5.1-.2 0-.3.1-.5.2-.1 0-.1 0-.2.1-.3.1-.7.4-.9.6-.1.1-.2.1-.2.2l-.2.2c-.1.2-.3.3-.4.5-.2.3-.4.7-.6 1.1-.1.1-.1.3-.1.4v.2c0 .1 0 .1-.1.1-.1.1-.1.3-.1.5 0 .1 0 .3-.1.4V104.4c0 .2.1.4.2.6.1.3.3.6.5.8l.2.2.3.3c.4.4 1 .7 1.5.9 1 .3 1.8.4 2.6-.1.1 0 .2-.1.2-.1 0 .1-.1.2-.1.3-.1.4-.3.8-.6 1.1-.6.7-1.6.8-2.5.6-.1-.1-.3-.1-.4-.2-.1 0-.1-.1-.2-.1-.2-.2-.5-.3-.7-.5l-.3-.3-.2-.2-.3-.3c-.1-.1-.2-.2-.3-.4 0-.1-.1-.1-.1-.1-.2-.1-.4.1-.5.2-.1.1-.3.2-.4.3-.2.1-.3.2-.5.3-.1.1-.4.2-.4.4-.1.2.1.4.2.6.1.2.2.4.4.5.5.7 1.4 1.3 2.2 1.7.2.1.5.2.7.3.1 0 .3.1.4.2.2 0 .3.1.4.1.1 0 .1 0 .2.1.1 0 .1 0 .2.1.1 0 .1 0 .2.1.3 0 .5.1.8.1.3 0 .5 0 .8-.1.1 0 .2-.1.4-.1 1.4-.4 2.2-2.1 2.8-3.4.6-1.3 1.1-2.7 1.7-4 .2-.6.5-1.2.8-1.9.4-1 .6-1.5.8-2.1zm-4.8 4.4l-.1.1c-.1 0-.1.1-.2.1h-.1c-.2.1-.5.1-.7.2-.3 0-.6 0-.9-.1-1.3-.4-1.9-1.8-1.2-3 .1-.2.3-.5.5-.7.2-.2.4-.3.6-.5.2-.1.5-.2.7-.3.3 0 .5-.1.8 0 .1 0 .2 0 .3.1.1 0 .2 0 .3.1h.2l.1.1s.1.1.2.1.1.1.2.1l.1.1c0 .1.1.1.1.2.1.1.1.2.2.3.2.4.2.8.1 1.3v.2c-.1.3-.2.6-.4.8-.1.1-.2.2-.3.4-.4.3-.4.3-.5.4zM233.1 103.2c.1-.3.2-.7.2-.8 0-.1-.2-.2-.3-.3-.2-.1-.6-.2-.8-.2-.7-.2-1.4-.1-2 .2v-.2-.2c0-.1.1-.2.1-.3 0-.1-.1-.1-.2-.1h-.1c-.1-.1-.3-.1-.5-.2-.1-.1-.2-.1-.4-.2-.3-.1-.6-.2-.9-.2-.1 0-.2-.1-.3 0l-.1.1c0 .1 0 .2-.1.3 0 .1-.1.3-.1.4 0 .1-.1.3-.1.5l-.3.9c-.2.5-.3 1-.5 1.5-.1.2-.1.3-.2.5 0 .1-.1.3-.1.4 0 .1-.1.1-.1.2-.1.1-.1.3-.1.4 0 .1 0 .2-.1.2-.1.2-.1.4-.2.6 0 .1-.1.2-.1.3-.1.2-.1.4-.2.7 0 .1-.1.2 0 .3 0 .1.1.1.2.1.3.1.5.2.7.3.3.1.6.1.8.2h.2v-.1-.1c0-.1 0-.1.1-.2v-.1-.1c0-.1 0-.2.1-.3v-.1-.1c0-.1.1-.1.1-.2s.1-.3.1-.4c.1-.4.3-.8.4-1.3.2-.5.3-1.1.6-1.5l.1-.1c.1-.1.2-.1.3-.2.2-.1.3-.1.5-.2.5-.1.9 0 1.3.1.1 0 .2.1.3.1.1.1.2.1.2.1.1 0 .1.1.2.1 0 0 .1 0 .1.1h.2c0-.1.1-.1.1-.2.1-.1.1-.3.2-.4.6 0 .7-.1.7-.3zM240.1 106.9c0-.1 0-.3.1-.4v-.4-.2c0-.4-.1-.9-.3-1.3-.2-.3-.4-.5-.7-.7-.3-.2-.6-.3-1-.4-.3-.1-.6-.2-.8-.3-.2-.1-.4-.1-.6-.2-.2-.1-.5-.1-.7-.1h-.6c-.4 0-.8.1-1.3.2-.2.1-.3.1-.4.2-.1.1-.2.2-.1.3.1.1.1.3.2.5.1.1.1.3.2.5 0 .1.1.2.1.2 0 .1.1.1.1.2.1.1.2.1.3 0 .2 0 .3 0 .5-.1s.4-.1.6-.1h.7c.2 0 .4.1.6.2l.6.3.1.1c.3.2.3.6.2.9-.1 0-.1-.1-.2-.1-.5-.3-1-.4-1.5-.5-.7-.1-1.5-.3-2.3-.1-.5 0-1 .1-1.4.4-.5.4-.7 1-.8 1.7-.1.6.1 1.2.5 1.7s.9.8 1.6 1c.8.2 1.8.3 2.7 0-.1.2-.2.6-.2.7l.1.1c.4.2.9.3 1.3.4.1 0 .3.1.4.1h.3c.1 0 .1-.1.2-.2.1-.2.2-.4.3-.5.1-.3.1-.5.2-.8.2-.7.6-1.4.8-2.2 0-.1.1-.6.2-1.1zm-3.1 1.8c-.1.1-.1.1-.2.1l-.2.2c-.5.3-.9.5-1.5.4-.2 0-.3-.1-.5-.1-.1 0-.1-.1-.2-.1h-.2c-.1 0-.2-.2-.2-.3 0-.1-.1-.2-.1-.3 0-.3.1-.6.3-.8l.3-.3s.1 0 .1-.1c.1-.1.2-.1.3-.1H235.8c.6 0 1 .3 1.6.5l-.2.4c0 .1-.1.1-.1.2v.1c0 .1 0 .1-.1.2zM246.9 112.8c-.1-.1-.1-.1-.2-.1s-.2-.1-.3-.1c-.1-.1-.3-.1-.4-.1-.1 0-.2-.1-.2-.1-.4-.1-.9-.2-1.3-.4-.8-.2-1.6-.5-2.3-.7l.6-.3c.2-.1.5-.2.8-.2.1 0 .3-.1.4-.1 0 0 .1 0 .1-.1 0 0 .1 0 .1-.1h.1c.1 0 .1-.1.2-.1s.1 0 .1-.1c.1 0 .1 0 .2-.1s.2-.1.3-.2l1.5-.6c.1 0 .2-.2.4-.2.1-.1.2-.1.4-.2.1-.1.3-.1.4-.2.1 0 .3-.1.3-.2.1-.1.1-.2.1-.3 0-.1.1-.2.1-.4 0-.1 0-.2.1-.3 0-.1 0-.2.1-.3v-.1-.3s0-.1-.1-.1c0 0-.1 0-.1-.1-.1 0-.2-.1-.3-.1-.1 0-.1 0-.2-.1h-.1s-.1 0-.1-.1c-.1 0-.2-.1-.3-.1-.4-.2-.9-.3-1.3-.4-.7-.2-1.4-.4-2.1-.7-.3-.1-.7-.2-1-.3-.2-.1-.4-.1-.6-.2h-.1c-.1 0-.2 0-.2-.1h-.2l-.2.4c-.1.3-.2.6-.2.9v.4l.1.1c.1 0 .1 0 .2.1.1 0 .1.1.2.1s.2 0 .2.1c.1 0 .2.1.3.1.4.1.9.3 1.4.4l1.8.6h-.1-.1c-.1 0-.2.1-.2.1-.1 0-.1.1-.2.1s-.1.1-.2.1h-.1c-.1 0-.1 0-.2.1s-.2.1-.3.2c-.1.1-.2.1-.3.1l-.6.3c-.3.1-.5.2-.8.3-.4.2-.9.3-1.3.5-.3.2-.7.3-1 .6-.1.1-.2.3-.2.4-.1.1-.1.3-.2.4 0 .2-.1.3-.1.5-.1.2-.2.5-.1.7 0 .1.1.1.2.1s.1 0 .2.1h.1c.1 0 .1.1.2.1.2 0 .4.1.6.2h.1c.1 0 .2.1.4.1s.4.1.5.1c1 .2 1.9.6 2.8.9.4.1.7.3 1.1.4h.1c.1 0 .2 0 .3.1.1 0 .3.1.4.1h.1s0-.1.1-.1v-.1c0-.1.1-.2.1-.3 0-.1 0-.1.1-.2v-.2s0-.1.1-.2v-.2c-.2-.1-.1-.2-.2-.3zM255.8 112.4c.1-.4.1-.7 0-1.1 0-.6-.1-1.1-.5-1.6-.1-.1-.1-.1-.1-.2s-.1-.1-.2-.2-.3-.2-.4-.4c-.2-.1-.3-.2-.5-.3-.1-.1-.2-.1-.3-.2-.1-.1-.2-.1-.3-.1-.1 0-.2-.1-.3-.1h-.1-.1c-.4-.2-.8-.2-1.2-.3-.4 0-.8 0-1.2.1-.3 0-.5.1-.7.2-.2 0-.3.1-.4.2l-.3.3s-.1.1-.1.2l-.3.3c-.2.2-.3.4-.5.6-.3.4-.4.8-.5 1.3 0 .2-.1.4-.1.6V113c0 .1.1.1.1.2s0 .2.1.3c0 0 0 .1.1.1.1.1.1.3.2.4.1.2.2.3.3.4.2.3.5.5.7.7.7.6 1.7.9 2.6 1.1.9.1 1.7.1 2.5-.3.1-.1.4-.2.3-.4 0-.1-.1-.2-.2-.3-.2-.3-.3-.5-.6-.8-.1-.1-.2-.2-.3-.2-.2 0-.3.1-.4.1-.2 0-.3.1-.4.1-.1 0-.3.1-.4.1-.2 0-.4-.1-.6-.2-.2-.1-.3-.2-.5-.3-.2-.1-.3-.2-.5-.3l-.3-.3c-.2-.4-.3-.8-.2-1.2.6.1 1.1.4 1.7.5.6.2 1.1.3 1.7.5.5.1 1 .4 1.5.5h.3c.1 0 .2-.1.3-.1.1-.1.1-.2.2-.3-.1-.4-.1-.6-.1-.9zm-4-1.3c-.5-.2-1.1-.4-1.6-.5l.1-.1c.4-.4.8-.6 1.4-.7.2 0 .3-.1.5-.1h.2c.2 0 .5.1.7.2.1 0 .2.1.3.2 0 0 .1 0 .1.1.1 0 .1.1.1.1.3.2.3.6.4 1v.6c-.7-.3-1.5-.5-2.2-.8zM257.3 108.3c.4.1.6.6.5.9-.1.4-.6.6-1 .5-.4-.1-.6-.5-.5-1 .2-.3.6-.5 1-.4zm0 .2c-.3-.1-.6.1-.7.4-.1.3.1.6.4.7.3.1.6-.1.7-.4.1-.3-.1-.6-.4-.7zm-.4.9l-.2-.1.2-.7c.1 0 .2 0 .3.1.2 0 .2.1.2.1v.2c0 .1-.1.1-.2.1.1.1.1.1.1.2v.2l-.2-.1v-.2c0-.1 0-.1-.1-.2h-.1v.4zm.1-.4c.2.1.3 0 .3 0 0-.1 0-.1-.1-.2h-.1l-.1.2z"/></g></g><g><path fill="#03979C" d="M19.4 101.9c21 .3 42 .2 63 0 20.9-.2 41.9-.4 62.7-1.5 1.5-.1.7-.9-.3-.8-20.8.6-41.6 1.4-62.4 1.6-21 .3-42 .1-63 .4-.7 0-.7.3 0 .3z"/></g><g><path fill="#03979C" d="M.6 118.9c31 .3 62.1.2 93.1-.4 10-.2 20.1-.3 30.1-.4 8.6-.1 17.3 0 25.9-.6 1.5-.1.8-.9-.4-.9-18.9.8-37.8.9-56.6 1.3-30.7.7-61.4.5-92.1.9-.5-.1-.5.1 0 .1z"/></g><g><path fill="#03979C" d="M28.5 136.9c37.9-1.7 75.7-.3 113.6-.7 1.4 0 1.4-.8 0-.8-37.9-.4-76.1-.9-114 1.1-.9.1-.1.4.4.4z"/></g></svg>
