<?xml version="1.0" encoding="utf-8"?>
<!-- Generator: Adobe Illustrator 16.0.0, SVG Export Plug-In . SVG Version: 6.00 Build 0)  -->
<!DOCTYPE svg PUBLIC "-//W3C//DTD SVG 1.1//EN" "http://www.w3.org/Graphics/SVG/1.1/DTD/svg11.dtd">
<svg version="1.1" id="Layer_1" xmlns="http://www.w3.org/2000/svg" xmlns:xlink="http://www.w3.org/1999/xlink" x="0px" y="0px"
	 width="107.716px" height="79.37px" viewBox="0 0 107.716 79.37" enable-background="new 0 0 107.716 79.37" xml:space="preserve">
<g>
	<path fill="#E5D59A" d="M0.581,38.136c0-2,0-4,0-6c0.559-1.899,0.865-3.882,1.86-5.638c0.194-0.342,0.305-0.75,0.762-0.861
		c0.811-0.196,1.226-0.826,1.656-1.465c0.712-1.06,1.441-2.109,2.204-3.133c0.328-0.441,0.664-0.906,1.21-1.13
		c1.763-0.723,3.525-1.447,5.288-2.171c1.044,0.627,2.197,0.483,3.332,0.47c0.429,0.084,0.868,0.136,1.287,0.257
		c2.267,0.653,4.721,0.605,6.825,1.877c2.73,1.649,5.5,3.227,8.402,4.563c3.736,1.72,7.378,3.611,10.733,6.012
		c0.359,0.257,0.741,0.256,1.142,0.23c0.195,0.194,0.43,0.287,0.706,0.273c4.75,2.2,9.327,4.667,13.441,7.969
		c4.047,3.248,8.115,6.483,12.619,9.111c1.266,0.74,2.463,1.597,3.658,2.461c1.242,0.899,2.31,1.998,3.6,2.842
		c2.438,1.595,4.839,3.271,6.681,5.582c0.417,0.522,0.851,0.917,1.489,1.084c1.008,1.73,1.488,3.549,0.916,5.541
		c-0.205,0.196-0.191,0.453-0.195,0.705l0.011-0.017c-0.386,0.316-0.511,0.737-0.489,1.218l0.014-0.006
		c-0.45,0.049-0.508,0.363-0.494,0.727l0.012-0.008c-0.306,0.023-0.464,0.191-0.488,0.494v-0.021
		c-0.084,0.084-0.168,0.168-0.251,0.251l0.013-0.011c-0.082,0.145-0.163,0.288-0.244,0.433c-3.198,3.06-6.781,5.468-11.174,6.438
		c-1.32,0.291-2.723,0.258-4.01,0.637c-3.582,1.053-7.23,1.612-10.941,1.908c-7.881,0.627-15.434-0.455-22.899-3.25
		c-6.989-2.615-13.115-6.531-19.09-10.816c-0.546-0.391-1.015-0.93-1.754-0.896c-0.616,0.028-1.06-0.264-1.501-0.628
		C8.683,58.039,4.527,51.52,2.042,43.907C1.428,42.025,1.062,40.062,0.581,38.136z"/>
	<path fill-rule="evenodd" clip-rule="evenodd" fill="#F2E6C6" d="M14.744,12.703c0.545-2.31,1.981-4.095,3.901-5.247
		C24.148,4.155,30.16,2.186,36.493,1.14c2.488-0.411,4.964-0.82,7.491-0.667c1.789,0.109,3.581,0.233,5.356,0.464
		c2.321,0.302,4.656-0.001,6.989,0.451c10.721,2.077,21.402,4.25,31.18,9.419c4.184,2.211,8.015,4.935,11.566,8.069
		c2.82,2.489,5.221,5.28,6.652,8.793c0.492,1.208,0.788,2.496,1.174,3.747c0,1.04,0,2.08,0,3.12
		c-0.365,2.068-0.572,4.163-1.178,6.192c-1.188,3.97-3.246,7.351-6.501,9.961c-1.39,1.115-2.964,1.701-4.764,1.619
		c-0.023-0.09-0.047-0.18-0.069-0.27c0.061-0.578,0.513-0.766,0.959-0.959c0.659,0.176,1.217-0.016,1.702-0.469
		c3.464-1.965,5.218-6.316,4.186-10.59c-1.282-5.303-4.757-9.123-8.669-12.642c-3.227-2.901-7.162-4.637-10.928-6.625
		c-4.711-2.487-9.708-4.214-14.894-5.527c-7.855-1.989-15.648-4.236-23.427-6.511c-1.993-0.583-3.984-0.291-5.951-0.598
		c-2.535-0.397-5.055-0.617-7.622-0.261c-1.59,0.221-3.111,0.898-4.684,0.942C21.137,8.909,17.754,10.267,14.744,12.703z
		 M92.265,19.093c-0.241,0.133-0.759,0.224-0.474,0.605c0.567,0.765,1.247,1.467,2.268,1.624c0.22,0.034,0.505,0.004,0.467-0.363
		C94.487,20.575,92.672,19.062,92.265,19.093z"/>
	<path fill-rule="evenodd" clip-rule="evenodd" fill="#D0B69B" d="M45.28,31.147c-0.401,0.025-0.782,0.027-1.142-0.23
		c-3.354-2.401-6.997-4.292-10.733-6.012c-2.902-1.336-5.672-2.914-8.402-4.563c-2.104-1.272-4.558-1.225-6.825-1.877
		c-0.419-0.121-0.857-0.173-1.287-0.256c-0.623-0.726,0.31-1.236,0.26-1.883c2.116-0.826,4.232-1.646,6.234-2.74
		c0.691-0.378,1.479-0.563,2.278-0.701c4.069-0.697,8.121-0.362,12.165,0.169c5.149,0.676,10.171,2.012,15.254,3.029
		c6.147,1.229,12.289,2.475,18.076,4.99c3.224,1.401,6.391,2.914,9.073,5.255c-1.509,0.119-2.936-0.583-4.449-0.435
		c-0.65,0.063-1.24-0.15-1.779-0.51c-2.746-1.593-5.758-2.08-8.875-2.124c-1.785,0.07-3.506-0.516-5.283-0.525
		c-1.324-0.407-2.701-0.302-4.02-0.154c-1.547,0.174-3.186,0.11-4.595,0.994c-1.703,0.627-3.482,1.101-5.089,1.917
		c-2.284,1.16-2.339,1.357-1.394,3.751C44.995,29.871,45.328,30.447,45.28,31.147z M75.395,24.27
		c-0.224-0.119-0.346-0.21-0.482-0.243c-0.061-0.015-0.151,0.089-0.229,0.14c0.12,0.083,0.23,0.189,0.363,0.24
		C75.108,24.429,75.209,24.346,75.395,24.27z M76.709,24.794c-0.031-0.011-0.062-0.021-0.094-0.032
		c0.021,0.037,0.043,0.074,0.064,0.111C76.69,24.847,76.7,24.821,76.709,24.794z M76,24.55c-0.034-0.012-0.068-0.032-0.103-0.031
		c-0.011,0-0.021,0.054-0.031,0.083c0.034,0.012,0.068,0.031,0.103,0.031C75.98,24.633,75.99,24.579,76,24.55z M74.11,23.824
		c-0.029-0.011-0.058-0.022-0.086-0.034c-0.004,0.042-0.01,0.085-0.014,0.127c0.03-0.005,0.066-0.004,0.089-0.02
		C74.114,23.887,74.107,23.849,74.11,23.824z"/>
	<path fill-rule="evenodd" clip-rule="evenodd" fill="#929135" d="M89.659,58.619c-0.298,0.553-0.641,1.065-1.227,1.357
		c-0.213-0.01-0.374,0.076-0.488,0.255c-0.157,0.079-0.314,0.158-0.471,0.237c-0.639-0.167-1.072-0.562-1.489-1.084
		c-1.842-2.311-4.243-3.987-6.681-5.582c-1.29-0.844-2.357-1.942-3.6-2.842c-1.195-0.864-2.393-1.721-3.658-2.461
		c-4.504-2.628-8.572-5.863-12.619-9.111c-4.114-3.302-8.69-5.769-13.441-7.969c0.847-0.075,1.592-0.184,0.574-1.183
		c-0.401-0.394-0.53-0.88-0.24-1.417c0.588-1.088,1.771-1.663,3.041-1.499c0.272,0.035,0.562,0.026,0.831-0.025
		c2.319-0.438,4.584-0.035,6.85,0.407c1.597,0.311,3.235,0.936,4.807,0.676c1.735-0.287,3.442-0.895,5.188-1.259
		c0.967-0.095,1.934-0.189,2.899-0.283c3.683-0.037,7.36,0.021,11.024,0.451c0.986,0.877,2.147,1.569,2.881,2.715
		c-0.379,0.001-0.665-0.228-0.992-0.372c-1.055-0.463-2.108-1.162-3.205-1.252c-3.857-0.316-7.738-0.992-11.465,1.028
		c-1.404,0.761-2.436,1.596-2.951,3.055c-0.857,2.425,0.527,6.56,2.914,8.514c2.167,1.773,4.19,3.694,6.139,5.698
		c1.448,1.49,3.04,2.817,4.609,4.175c1.892,1.637,3.996,3.008,5.608,5c1.05,1.297,2.548,2.182,4.355,2.215
		C89.254,58.074,89.556,58.193,89.659,58.619z"/>
	<path fill-rule="evenodd" clip-rule="evenodd" fill="#D4B580" d="M17.151,16.325c0.05,0.646-0.883,1.157-0.26,1.883
		c-1.134,0.012-2.288,0.157-3.332-0.471c-0.307-1.843,0.291-3.474,1.185-5.034c3.01-2.437,6.393-3.794,10.318-3.903
		c1.572-0.043,3.093-0.721,4.684-0.942c2.567-0.356,5.087-0.136,7.622,0.261c1.967,0.308,3.958,0.016,5.951,0.598
		c7.779,2.275,15.571,4.522,23.427,6.511c5.186,1.313,10.183,3.04,14.894,5.527c3.766,1.988,7.701,3.724,10.928,6.625
		c3.912,3.519,7.387,7.338,8.669,12.642c1.032,4.273-0.722,8.625-4.186,10.59c0.003-0.398,0.005-0.797,0.007-1.194
		c0.961-1.413,0.809-2.979,0.75-4.581c-0.087-2.394-0.629-4.626-1.6-6.816c-1.097-2.479-3.023-4.388-4.34-6.725
		c-1.345-2.387-2.774-4.92-6.006-5.29c-0.247-0.028-0.476-0.281-0.699-0.448c-3.193-2.375-6.703-4.173-10.369-5.68
		c-7.086-2.913-14.57-4.419-21.97-6.224c-3.634-0.887-7.293-1.652-10.961-2.381c-0.293-0.309-0.701-0.356-1.078-0.474
		c-2.534-0.791-5.171-0.85-7.779-0.947c-2.164-0.08-4.375-0.335-6.497,0.432c-0.471,0.083-0.94,0.169-1.412,0.249
		c-3.386,0.571-6.429,1.854-8.841,4.374c-0.419,0.438-1.338,0.923-1.055,1.425C15.615,17.067,16.478,16.349,17.151,16.325z"/>
	<path fill-rule="evenodd" clip-rule="evenodd" fill="#5D5020" d="M67.036,27.122c-1.746,0.364-3.453,0.972-5.188,1.259
		c-1.571,0.259-3.21-0.365-4.807-0.676c-2.265-0.442-4.531-0.844-6.85-0.407c-0.27,0.051-0.559,0.06-0.831,0.025
		c-1.271-0.164-2.453,0.41-3.041,1.499c-0.29,0.536-0.161,1.022,0.24,1.417c1.018,0.999,0.273,1.108-0.574,1.183
		c-0.275,0.014-0.51-0.079-0.706-0.273c0.048-0.7-0.285-1.276-0.533-1.904c-0.945-2.395-0.89-2.592,1.394-3.751
		c1.606-0.816,3.386-1.29,5.089-1.917c2.85-0.508,5.708-0.917,8.614-0.84c1.777,0.009,3.498,0.595,5.283,0.525
		c1.791,0.694,3.692,0.977,5.537,1.469c1.095,0.292,2.16,0.776,3.338,0.655c0.539,0.36,1.129,0.573,1.779,0.51
		c1.514-0.148,2.94,0.554,4.449,0.435c0.242,0.321,0.484,0.641,0.728,0.962c-3.663-0.43-7.341-0.488-11.023-0.451
		c0.498-0.468,1.269-0.152,1.796-0.587c-2.359-0.944-4.766-1.502-7.277-1.575c-1.625-0.678-3.357-0.438-5.043-0.587
		c-1.318-0.314-2.617,0.058-3.918,0.147c-3.045,0.209-5.931,1.126-8.777,2.169c-0.333,0.122-0.719,0.261-0.375,0.799
		c1.637-0.974,3.384-1.588,5.311-1.588c0.674,0,1.349-0.021,1.999-0.236c0.498,0.424,1.095,0.278,1.664,0.292
		C59.192,26.394,63.022,27.5,67.036,27.122z"/>
	<path fill-rule="evenodd" clip-rule="evenodd" fill="#D0B69B" d="M88.205,66.698c0.003,0.473-0.065,0.917-0.489,1.218
		C87.694,67.436,87.819,67.015,88.205,66.698z"/>
	<path fill-rule="evenodd" clip-rule="evenodd" fill="#D0B69B" d="M87.729,67.91c-0.047,0.322-0.213,0.564-0.494,0.727
		C87.221,68.273,87.279,67.959,87.729,67.91z"/>
	<path fill-rule="evenodd" clip-rule="evenodd" fill="#D0B69B" d="M87.247,68.629c-0.069,0.258-0.205,0.447-0.488,0.494
		C86.783,68.82,86.941,68.652,87.247,68.629z"/>
	<path fill-rule="evenodd" clip-rule="evenodd" fill="#D0B69B" d="M88.389,66.01c0.02,0.259,0.039,0.517-0.195,0.705
		C88.198,66.463,88.184,66.206,88.389,66.01z"/>
	<path fill-rule="evenodd" clip-rule="evenodd" fill="#D0B69B" d="M86.52,69.342c0.023,0.203-0.085,0.332-0.244,0.433
		C86.357,69.63,86.438,69.486,86.52,69.342z"/>
	<path fill-rule="evenodd" clip-rule="evenodd" fill="#D0B69B" d="M86.758,69.102c-0.084,0.084-0.168,0.168-0.251,0.251
		C86.59,69.27,86.674,69.186,86.758,69.102z"/>
	<path fill-rule="evenodd" clip-rule="evenodd" fill="#AAB037" d="M89.659,58.619c-0.103-0.426-0.404-0.545-0.806-0.553
		c-1.808-0.033-3.306-0.918-4.355-2.215c-1.612-1.992-3.717-3.363-5.608-5c-1.569-1.357-3.161-2.685-4.609-4.175
		c-1.948-2.004-3.972-3.925-6.139-5.698c-2.387-1.954-3.771-6.088-2.914-8.514c0.516-1.459,1.547-2.294,2.951-3.055
		c3.727-2.02,7.607-1.344,11.465-1.028c1.097,0.09,2.15,0.789,3.205,1.252c0.327,0.144,0.613,0.373,0.992,0.371
		c0.242,0.235,0.484,0.471,0.727,0.707c0.077,0.08,0.154,0.16,0.23,0.24c0.159,0.166,0.318,0.331,0.477,0.496
		c0.096,0.146,0.191,0.292,0.287,0.438l-0.007-0.003c0.083,0.083,0.167,0.166,0.251,0.249c0.072,0.076,0.145,0.151,0.217,0.227
		c0.082,0.089,0.163,0.177,0.244,0.266c0.074,0.078,0.146,0.155,0.221,0.233c-0.014,0.372,0.137,0.692,0.295,1.019
		c2.871,5.914,5.99,11.725,7.607,18.165c0.022,0.09,0.046,0.18,0.069,0.27c-0.351,0.88-0.261,1.868-0.722,2.73
		c-0.675,1.262-1.6,2.25-2.927,2.801C90.36,58.027,90.006,58.307,89.659,58.619z"/>
	<path fill-rule="evenodd" clip-rule="evenodd" fill="#AAB037" d="M87.944,60.231c0.114-0.179,0.275-0.265,0.488-0.255
		C88.334,60.186,88.153,60.236,87.944,60.231z"/>
	<path fill-rule="evenodd" clip-rule="evenodd" fill="#7D5122" d="M84.567,30.711c-0.242-0.235-0.484-0.471-0.727-0.707
		c-0.733-1.146-1.895-1.837-2.881-2.714c-0.244-0.321-0.486-0.641-0.729-0.962c-2.683-2.342-5.85-3.854-9.073-5.255
		c-5.787-2.516-11.929-3.761-18.076-4.99c-5.083-1.017-10.105-2.354-15.254-3.029c-4.043-0.531-8.096-0.866-12.165-0.169
		c-0.799,0.137-1.587,0.323-2.278,0.701c-2.002,1.095-4.118,1.915-6.234,2.74c-0.674,0.023-1.537,0.742-1.952,0.005
		c-0.283-0.502,0.636-0.988,1.055-1.425c2.413-2.519,5.455-3.802,8.841-4.374c0.471-0.08,0.941-0.166,1.412-0.249
		c2.167-0.094,4.3,0.186,6.426,0.563c0.313,0.549,0.792,0.658,1.404,0.682c2.631,0.104,5.249,0.344,7.843,0.834
		c4.75,0.897,9.369,2.348,14.117,3.253c6.884,1.312,13.65,3.04,19.939,6.249c2.775,1.417,5.186,3.384,7.723,5.176
		c6.15,4.344,9.951,10.132,11.881,17.284c0.454,1.685,0.814,3.394,1.217,5.092c-0.002,0.397-0.004,0.796-0.007,1.194
		c-0.485,0.453-1.043,0.645-1.701,0.469c-0.224-0.549-0.577-1.082-0.651-1.652c-0.444-3.432-1.479-6.663-3.193-9.664
		c-1.42-2.482-2.904-4.926-5.018-6.908c-0.074-0.078-0.146-0.155-0.221-0.233c-0.081-0.088-0.162-0.177-0.244-0.266
		c-0.072-0.076-0.145-0.151-0.218-0.227c-0.083-0.083-0.167-0.166-0.25-0.249c0,0,0.007,0.003,0.006,0.003
		c-0.095-0.146-0.19-0.292-0.286-0.438c-0.158-0.165-0.317-0.33-0.476-0.496C84.721,30.871,84.644,30.791,84.567,30.711z"/>
	<path fill-rule="evenodd" clip-rule="evenodd" fill="#949035" d="M86.487,32.856c2.113,1.982,3.598,4.426,5.018,6.908
		c1.715,3,2.749,6.232,3.193,9.664c0.074,0.57,0.428,1.104,0.651,1.652c-0.447,0.193-0.899,0.381-0.96,0.959
		c-1.617-6.439-4.736-12.25-7.607-18.165C86.624,33.548,86.473,33.228,86.487,32.856z"/>
	<path fill-rule="evenodd" clip-rule="evenodd" fill="#FFFFFF" d="M92.265,19.093c0.407-0.03,2.222,1.482,2.261,1.866
		c0.038,0.368-0.247,0.397-0.467,0.363c-1.021-0.157-1.7-0.859-2.268-1.624C91.506,19.316,92.024,19.226,92.265,19.093z"/>
	<path fill-rule="evenodd" clip-rule="evenodd" fill="#FFFFFF" d="M68.266,13.652c0.024,0.017,0.049,0.033,0.074,0.049
		c-0.027-0.013-0.057-0.026-0.084-0.039L68.266,13.652z"/>
	<path fill-rule="evenodd" clip-rule="evenodd" fill="#F0EEE9" d="M74.002,25.384c-1.178,0.121-2.243-0.363-3.338-0.655
		c-1.845-0.492-3.746-0.774-5.537-1.469C68.245,23.304,71.256,23.791,74.002,25.384z"/>
	<path fill-rule="evenodd" clip-rule="evenodd" fill="#DCD3C5" d="M59.844,22.735c-2.906-0.077-5.765,0.332-8.614,0.84
		c1.409-0.884,3.047-0.82,4.595-0.994C57.143,22.433,58.52,22.328,59.844,22.735z"/>
	<path fill-rule="evenodd" clip-rule="evenodd" fill="#F2E6C6" d="M75.395,24.27c-0.186,0.077-0.287,0.16-0.348,0.136
		c-0.133-0.051-0.243-0.157-0.363-0.24c0.077-0.05,0.168-0.154,0.229-0.14C75.049,24.059,75.171,24.151,75.395,24.27z"/>
	<path fill-rule="evenodd" clip-rule="evenodd" fill="#F2E6C6" d="M76.709,24.794c-0.01,0.027-0.02,0.053-0.029,0.08
		c-0.021-0.037-0.043-0.074-0.064-0.111C76.647,24.772,76.678,24.783,76.709,24.794z"/>
	<path fill-rule="evenodd" clip-rule="evenodd" fill="#F2E6C6" d="M76,24.55c-0.011,0.029-0.021,0.083-0.031,0.083
		c-0.034,0-0.068-0.02-0.103-0.031c0.011-0.029,0.021-0.083,0.031-0.083C75.932,24.519,75.966,24.538,76,24.55z"/>
	<path fill-rule="evenodd" clip-rule="evenodd" fill="#F2E6C6" d="M74.11,23.824c-0.003,0.025,0.004,0.063-0.011,0.073
		c-0.022,0.016-0.059,0.015-0.089,0.02c0.004-0.042,0.01-0.085,0.014-0.127C74.052,23.801,74.081,23.812,74.11,23.824z"/>
	<path fill-rule="evenodd" clip-rule="evenodd" fill="#C7B976" d="M64.454,24.677c2.512,0.072,4.918,0.631,7.277,1.575
		c-0.527,0.435-1.298,0.119-1.796,0.587c-0.966,0.094-1.933,0.188-2.899,0.283c-4.014,0.378-7.844-0.729-11.722-1.449
		c0.077-0.257,0.519-0.245,0.446-0.684c-0.693,0.222-1.449-0.006-2.11,0.393c-0.65,0.215-1.324,0.236-1.999,0.236
		c-1.927,0-3.673,0.615-5.311,1.588c-0.344-0.538,0.042-0.677,0.375-0.799c2.846-1.043,5.732-1.96,8.777-2.169
		c1.301-0.089,2.6-0.462,3.918-0.147C61.027,24.844,62.658,25.47,64.454,24.677z"/>
	<path fill-rule="evenodd" clip-rule="evenodd" fill="#B18950" d="M97.057,49.417c-0.402-1.698-0.763-3.407-1.217-5.092
		c-1.93-7.152-5.73-12.94-11.881-17.284c-2.537-1.792-4.947-3.759-7.723-5.176c-6.289-3.209-13.056-4.937-19.939-6.249
		c-4.748-0.906-9.367-2.356-14.117-3.253c-2.594-0.49-5.212-0.729-7.843-0.834c-0.612-0.024-1.09-0.133-1.404-0.682
		c0.477-0.027,0.953-0.06,1.429-0.081c2.519-0.112,4.994,0.423,7.499,0.507c3.668,0.729,7.327,1.494,10.961,2.381
		c7.4,1.805,14.884,3.312,21.97,6.224c3.666,1.507,7.176,3.305,10.369,5.68c0.224,0.167,0.452,0.419,0.699,0.448
		c3.231,0.37,4.661,2.903,6.006,5.29c1.316,2.337,3.243,4.246,4.34,6.725c0.971,2.189,1.513,4.422,1.6,6.816
		C97.866,46.438,98.018,48.004,97.057,49.417z"/>
	<path fill-rule="evenodd" clip-rule="evenodd" fill="#CFB496" d="M41.862,11.272c-2.505-0.084-4.98-0.619-7.499-0.507
		c-0.477,0.021-0.953,0.054-1.429,0.081c-2.125-0.377-4.259-0.657-6.426-0.563c2.123-0.767,4.333-0.512,6.497-0.432
		c2.608,0.097,5.245,0.156,7.779,0.947C41.161,10.916,41.569,10.964,41.862,11.272z"/>
	<path fill-rule="evenodd" clip-rule="evenodd" fill="#F0EEE9" d="M64.454,24.677c-1.796,0.793-3.427,0.167-5.043-0.587
		C61.096,24.239,62.829,23.999,64.454,24.677z"/>
	<path fill-rule="evenodd" clip-rule="evenodd" fill="#F0EEE9" d="M53.65,25.382c0.662-0.398,1.417-0.17,2.11-0.393
		c0.072,0.439-0.369,0.427-0.446,0.684C54.745,25.66,54.147,25.806,53.65,25.382z"/>
	<path fill-rule="evenodd" clip-rule="evenodd" fill="#929135" d="M85.274,31.447c0.096,0.146,0.191,0.292,0.286,0.438
		C85.465,31.738,85.37,31.592,85.274,31.447z"/>
	<path fill-rule="evenodd" clip-rule="evenodd" fill="#949035" d="M86.022,32.357c0.082,0.089,0.163,0.177,0.244,0.266
		C86.185,32.535,86.104,32.446,86.022,32.357z"/>
	<path fill-rule="evenodd" clip-rule="evenodd" fill="#929135" d="M85.554,31.881c0.083,0.083,0.167,0.166,0.25,0.249
		C85.721,32.047,85.637,31.964,85.554,31.881z"/>
	<path fill-rule="evenodd" clip-rule="evenodd" fill="#929135" d="M84.567,30.711c0.077,0.08,0.154,0.16,0.231,0.24
		C84.721,30.871,84.644,30.791,84.567,30.711z"/>
</g>
</svg>
