<svg xmlns="http://www.w3.org/2000/svg" version="1.1" x="0" y="0" width="107.72" height="79.37" viewBox="0 0 107.72 79.37" enable-background="new 0 0 107.716 79.37" xml:space="preserve"><path fill="#E5D59A" d="M0.58 38.14c0-2 0-4 0-6 0.56-1.9 0.87-3.88 1.86-5.64 0.19-0.34 0.31-0.75 0.76-0.86 0.81-0.2 1.23-0.83 1.66-1.46 0.71-1.06 1.44-2.11 2.2-3.13 0.33-0.44 0.66-0.91 1.21-1.13 1.76-0.72 3.53-1.45 5.29-2.17 1.04 0.63 2.2 0.48 3.33 0.47 0.43 0.08 0.87 0.14 1.29 0.26 2.27 0.65 4.72 0.61 6.83 1.88 2.73 1.65 5.5 3.23 8.4 4.56 3.74 1.72 7.38 3.61 10.73 6.01 0.36 0.26 0.74 0.26 1.14 0.23 0.2 0.19 0.43 0.29 0.71 0.27 4.75 2.2 9.33 4.67 13.44 7.97 4.05 3.25 8.12 6.48 12.62 9.11 1.27 0.74 2.46 1.6 3.66 2.46 1.24 0.9 2.31 2 3.6 2.84 2.44 1.6 4.84 3.27 6.68 5.58 0.42 0.52 0.85 0.92 1.49 1.08 1.01 1.73 1.49 3.55 0.92 5.54 -0.2 0.2-0.19 0.45-0.19 0.71l0.01-0.02c-0.39 0.32-0.51 0.74-0.49 1.22l0.01-0.01c-0.45 0.05-0.51 0.36-0.49 0.73l0.01-0.01c-0.31 0.02-0.46 0.19-0.49 0.49v-0.02c-0.08 0.08-0.17 0.17-0.25 0.25l0.01-0.01c-0.08 0.14-0.16 0.29-0.24 0.43 -3.2 3.06-6.78 5.47-11.17 6.44 -1.32 0.29-2.72 0.26-4.01 0.64 -3.58 1.05-7.23 1.61-10.94 1.91 -7.88 0.63-15.43-0.45-22.9-3.25 -6.99-2.61-13.11-6.53-19.09-10.82 -0.55-0.39-1.01-0.93-1.75-0.9 -0.62 0.03-1.06-0.26-1.5-0.63C8.68 58.04 4.53 51.52 2.04 43.91 1.43 42.03 1.06 40.06 0.58 38.14z"/><path fill-rule="evenodd" clip-rule="evenodd" fill="#F2E6C6" d="M14.74 12.7c0.55-2.31 1.98-4.09 3.9-5.25C24.15 4.16 30.16 2.19 36.49 1.14c2.49-0.41 4.96-0.82 7.49-0.67 1.79 0.11 3.58 0.23 5.36 0.46 2.32 0.3 4.66 0 6.99 0.45 10.72 2.08 21.4 4.25 31.18 9.42 4.18 2.21 8.02 4.93 11.57 8.07 2.82 2.49 5.22 5.28 6.65 8.79 0.49 1.21 0.79 2.5 1.17 3.75 0 1.04 0 2.08 0 3.12 -0.36 2.07-0.57 4.16-1.18 6.19 -1.19 3.97-3.25 7.35-6.5 9.96 -1.39 1.12-2.96 1.7-4.76 1.62 -0.02-0.09-0.05-0.18-0.07-0.27 0.06-0.58 0.51-0.77 0.96-0.96 0.66 0.18 1.22-0.02 1.7-0.47 3.46-1.96 5.22-6.32 4.19-10.59 -1.28-5.3-4.76-9.12-8.67-12.64 -3.23-2.9-7.16-4.64-10.93-6.62 -4.71-2.49-9.71-4.21-14.89-5.53 -7.85-1.99-15.65-4.24-23.43-6.51 -1.99-0.58-3.98-0.29-5.95-0.6 -2.53-0.4-5.05-0.62-7.62-0.26 -1.59 0.22-3.11 0.9-4.68 0.94C21.14 8.91 17.75 10.27 14.74 12.7zM92.27 19.09c-0.24 0.13-0.76 0.22-0.47 0.61 0.57 0.77 1.25 1.47 2.27 1.62 0.22 0.03 0.51 0 0.47-0.36C94.49 20.58 92.67 19.06 92.27 19.09z"/><path fill-rule="evenodd" clip-rule="evenodd" fill="#D0B69B" d="M45.28 31.15c-0.4 0.03-0.78 0.03-1.14-0.23 -3.35-2.4-7-4.29-10.73-6.01 -2.9-1.34-5.67-2.91-8.4-4.56 -2.1-1.27-4.56-1.23-6.82-1.88 -0.42-0.12-0.86-0.17-1.29-0.26 -0.62-0.73 0.31-1.24 0.26-1.88 2.12-0.83 4.23-1.65 6.23-2.74 0.69-0.38 1.48-0.56 2.28-0.7 4.07-0.7 8.12-0.36 12.17 0.17 5.15 0.68 10.17 2.01 15.25 3.03 6.15 1.23 12.29 2.48 18.08 4.99 3.22 1.4 6.39 2.91 9.07 5.26 -1.51 0.12-2.94-0.58-4.45-0.43 -0.65 0.06-1.24-0.15-1.78-0.51 -2.75-1.59-5.76-2.08-8.87-2.12 -1.78 0.07-3.51-0.52-5.28-0.52 -1.32-0.41-2.7-0.3-4.02-0.15 -1.55 0.17-3.19 0.11-4.59 0.99 -1.7 0.63-3.48 1.1-5.09 1.92 -2.28 1.16-2.34 1.36-1.39 3.75C45 29.87 45.33 30.45 45.28 31.15zM75.4 24.27c-0.22-0.12-0.35-0.21-0.48-0.24 -0.06-0.01-0.15 0.09-0.23 0.14 0.12 0.08 0.23 0.19 0.36 0.24C75.11 24.43 75.21 24.35 75.4 24.27zM76.71 24.79c-0.03-0.01-0.06-0.02-0.09-0.03 0.02 0.04 0.04 0.07 0.06 0.11C76.69 24.85 76.7 24.82 76.71 24.79zM76 24.55c-0.03-0.01-0.07-0.03-0.1-0.03 -0.01 0-0.02 0.05-0.03 0.08 0.03 0.01 0.07 0.03 0.1 0.03C75.98 24.63 75.99 24.58 76 24.55zM74.11 23.82c-0.03-0.01-0.06-0.02-0.09-0.03 0 0.04-0.01 0.09-0.01 0.13 0.03 0 0.07 0 0.09-0.02C74.11 23.89 74.11 23.85 74.11 23.82z"/><path fill-rule="evenodd" clip-rule="evenodd" fill="#929135" d="M89.66 58.62c-0.3 0.55-0.64 1.07-1.23 1.36 -0.21-0.01-0.37 0.08-0.49 0.26 -0.16 0.08-0.31 0.16-0.47 0.24 -0.64-0.17-1.07-0.56-1.49-1.08 -1.84-2.31-4.24-3.99-6.68-5.58 -1.29-0.84-2.36-1.94-3.6-2.84 -1.19-0.86-2.39-1.72-3.66-2.46 -4.5-2.63-8.57-5.86-12.62-9.11 -4.11-3.3-8.69-5.77-13.44-7.97 0.85-0.07 1.59-0.18 0.57-1.18 -0.4-0.39-0.53-0.88-0.24-1.42 0.59-1.09 1.77-1.66 3.04-1.5 0.27 0.04 0.56 0.03 0.83-0.02 2.32-0.44 4.58-0.04 6.85 0.41 1.6 0.31 3.24 0.94 4.81 0.68 1.74-0.29 3.44-0.89 5.19-1.26 0.97-0.09 1.93-0.19 2.9-0.28 3.68-0.04 7.36 0.02 11.02 0.45 0.99 0.88 2.15 1.57 2.88 2.72 -0.38 0-0.66-0.23-0.99-0.37 -1.05-0.46-2.11-1.16-3.2-1.25 -3.86-0.32-7.74-0.99-11.46 1.03 -1.4 0.76-2.44 1.6-2.95 3.06 -0.86 2.42 0.53 6.56 2.91 8.51 2.17 1.77 4.19 3.69 6.14 5.7 1.45 1.49 3.04 2.82 4.61 4.18 1.89 1.64 4 3.01 5.61 5 1.05 1.3 2.55 2.18 4.36 2.22C89.25 58.07 89.56 58.19 89.66 58.62z"/><path fill-rule="evenodd" clip-rule="evenodd" fill="#D4B580" d="M17.15 16.33c0.05 0.65-0.88 1.16-0.26 1.88 -1.13 0.01-2.29 0.16-3.33-0.47 -0.31-1.84 0.29-3.47 1.19-5.03 3.01-2.44 6.39-3.79 10.32-3.9 1.57-0.04 3.09-0.72 4.68-0.94 2.57-0.36 5.09-0.14 7.62 0.26 1.97 0.31 3.96 0.02 5.95 0.6 7.78 2.28 15.57 4.52 23.43 6.51 5.19 1.31 10.18 3.04 14.89 5.53 3.77 1.99 7.7 3.72 10.93 6.63 3.91 3.52 7.39 7.34 8.67 12.64 1.03 4.27-0.72 8.63-4.19 10.59 0-0.4 0.01-0.8 0.01-1.19 0.96-1.41 0.81-2.98 0.75-4.58 -0.09-2.39-0.63-4.63-1.6-6.82 -1.1-2.48-3.02-4.39-4.34-6.72 -1.34-2.39-2.77-4.92-6.01-5.29 -0.25-0.03-0.48-0.28-0.7-0.45 -3.19-2.37-6.7-4.17-10.37-5.68 -7.09-2.91-14.57-4.42-21.97-6.22 -3.63-0.89-7.29-1.65-10.96-2.38 -0.29-0.31-0.7-0.36-1.08-0.47 -2.53-0.79-5.17-0.85-7.78-0.95 -2.16-0.08-4.37-0.33-6.5 0.43 -0.47 0.08-0.94 0.17-1.41 0.25 -3.39 0.57-6.43 1.85-8.84 4.37 -0.42 0.44-1.34 0.92-1.05 1.43C15.62 17.07 16.48 16.35 17.15 16.33z"/><path fill-rule="evenodd" clip-rule="evenodd" fill="#5D5020" d="M67.04 27.12c-1.75 0.36-3.45 0.97-5.19 1.26 -1.57 0.26-3.21-0.36-4.81-0.68 -2.26-0.44-4.53-0.84-6.85-0.41 -0.27 0.05-0.56 0.06-0.83 0.03 -1.27-0.16-2.45 0.41-3.04 1.5 -0.29 0.54-0.16 1.02 0.24 1.42 1.02 1 0.27 1.11-0.57 1.18 -0.28 0.01-0.51-0.08-0.71-0.27 0.05-0.7-0.28-1.28-0.53-1.9 -0.94-2.39-0.89-2.59 1.39-3.75 1.61-0.82 3.39-1.29 5.09-1.92 2.85-0.51 5.71-0.92 8.61-0.84 1.78 0.01 3.5 0.6 5.28 0.53 1.79 0.69 3.69 0.98 5.54 1.47 1.1 0.29 2.16 0.78 3.34 0.66 0.54 0.36 1.13 0.57 1.78 0.51 1.51-0.15 2.94 0.55 4.45 0.44 0.24 0.32 0.48 0.64 0.73 0.96 -3.66-0.43-7.34-0.49-11.02-0.45 0.5-0.47 1.27-0.15 1.8-0.59 -2.36-0.94-4.77-1.5-7.28-1.57 -1.62-0.68-3.36-0.44-5.04-0.59 -1.32-0.31-2.62 0.06-3.92 0.15 -3.04 0.21-5.93 1.13-8.78 2.17 -0.33 0.12-0.72 0.26-0.37 0.8 1.64-0.97 3.38-1.59 5.31-1.59 0.67 0 1.35-0.02 2-0.24 0.5 0.42 1.1 0.28 1.66 0.29C59.19 26.39 63.02 27.5 67.04 27.12z"/><path fill-rule="evenodd" clip-rule="evenodd" fill="#D0B69B" d="M88.21 66.7c0 0.47-0.06 0.92-0.49 1.22C87.69 67.44 87.82 67.02 88.21 66.7z"/><path fill-rule="evenodd" clip-rule="evenodd" fill="#D0B69B" d="M87.73 67.91c-0.05 0.32-0.21 0.56-0.49 0.73C87.22 68.27 87.28 67.96 87.73 67.91z"/><path fill-rule="evenodd" clip-rule="evenodd" fill="#D0B69B" d="M87.25 68.63c-0.07 0.26-0.2 0.45-0.49 0.49C86.78 68.82 86.94 68.65 87.25 68.63z"/><path fill-rule="evenodd" clip-rule="evenodd" fill="#D0B69B" d="M88.39 66.01c0.02 0.26 0.04 0.52-0.19 0.71C88.2 66.46 88.18 66.21 88.39 66.01z"/><path fill-rule="evenodd" clip-rule="evenodd" fill="#D0B69B" d="M86.52 69.34c0.02 0.2-0.08 0.33-0.24 0.43C86.36 69.63 86.44 69.49 86.52 69.34z"/><path fill-rule="evenodd" clip-rule="evenodd" fill="#D0B69B" d="M86.76 69.1c-0.08 0.08-0.17 0.17-0.25 0.25C86.59 69.27 86.67 69.19 86.76 69.1z"/><path fill-rule="evenodd" clip-rule="evenodd" fill="#AAB037" d="M89.66 58.62c-0.1-0.43-0.4-0.55-0.81-0.55 -1.81-0.03-3.31-0.92-4.36-2.21 -1.61-1.99-3.72-3.36-5.61-5 -1.57-1.36-3.16-2.68-4.61-4.17 -1.95-2-3.97-3.92-6.14-5.7 -2.39-1.95-3.77-6.09-2.91-8.51 0.52-1.46 1.55-2.29 2.95-3.05 3.73-2.02 7.61-1.34 11.47-1.03 1.1 0.09 2.15 0.79 3.21 1.25 0.33 0.14 0.61 0.37 0.99 0.37 0.24 0.24 0.48 0.47 0.73 0.71 0.08 0.08 0.15 0.16 0.23 0.24 0.16 0.17 0.32 0.33 0.48 0.5 0.1 0.15 0.19 0.29 0.29 0.44l-0.01 0c0.08 0.08 0.17 0.17 0.25 0.25 0.07 0.08 0.14 0.15 0.22 0.23 0.08 0.09 0.16 0.18 0.24 0.27 0.07 0.08 0.15 0.16 0.22 0.23 -0.01 0.37 0.14 0.69 0.3 1.02 2.87 5.91 5.99 11.73 7.61 18.17 0.02 0.09 0.05 0.18 0.07 0.27 -0.35 0.88-0.26 1.87-0.72 2.73 -0.67 1.26-1.6 2.25-2.93 2.8C90.36 58.03 90.01 58.31 89.66 58.62z"/><path fill-rule="evenodd" clip-rule="evenodd" fill="#AAB037" d="M87.94 60.23c0.11-0.18 0.28-0.26 0.49-0.25C88.33 60.19 88.15 60.24 87.94 60.23z"/><path fill-rule="evenodd" clip-rule="evenodd" fill="#7D5122" d="M84.57 30.71c-0.24-0.23-0.48-0.47-0.73-0.71 -0.73-1.15-1.89-1.84-2.88-2.71 -0.24-0.32-0.49-0.64-0.73-0.96 -2.68-2.34-5.85-3.85-9.07-5.25 -5.79-2.52-11.93-3.76-18.08-4.99 -5.08-1.02-10.1-2.35-15.25-3.03 -4.04-0.53-8.1-0.87-12.16-0.17 -0.8 0.14-1.59 0.32-2.28 0.7 -2 1.1-4.12 1.92-6.23 2.74 -0.67 0.02-1.54 0.74-1.95 0.01 -0.28-0.5 0.64-0.99 1.06-1.42 2.41-2.52 5.46-3.8 8.84-4.37 0.47-0.08 0.94-0.17 1.41-0.25 2.17-0.09 4.3 0.19 6.43 0.56 0.31 0.55 0.79 0.66 1.4 0.68 2.63 0.1 5.25 0.34 7.84 0.83 4.75 0.9 9.37 2.35 14.12 3.25 6.88 1.31 13.65 3.04 19.94 6.25 2.78 1.42 5.19 3.38 7.72 5.18 6.15 4.34 9.95 10.13 11.88 17.28 0.45 1.69 0.81 3.39 1.22 5.09 0 0.4 0 0.8-0.01 1.19 -0.48 0.45-1.04 0.65-1.7 0.47 -0.22-0.55-0.58-1.08-0.65-1.65 -0.44-3.43-1.48-6.66-3.19-9.66 -1.42-2.48-2.9-4.93-5.02-6.91 -0.07-0.08-0.15-0.15-0.22-0.23 -0.08-0.09-0.16-0.18-0.24-0.27 -0.07-0.08-0.14-0.15-0.22-0.23 -0.08-0.08-0.17-0.17-0.25-0.25 0 0 0.01 0 0.01 0 -0.09-0.15-0.19-0.29-0.29-0.44 -0.16-0.16-0.32-0.33-0.48-0.5C84.72 30.87 84.64 30.79 84.57 30.71z"/><path fill-rule="evenodd" clip-rule="evenodd" fill="#949035" d="M86.49 32.86c2.11 1.98 3.6 4.43 5.02 6.91 1.72 3 2.75 6.23 3.19 9.66 0.07 0.57 0.43 1.1 0.65 1.65 -0.45 0.19-0.9 0.38-0.96 0.96 -1.62-6.44-4.74-12.25-7.61-18.16C86.62 33.55 86.47 33.23 86.49 32.86z"/><path fill-rule="evenodd" clip-rule="evenodd" fill="#FFFFFF" d="M92.27 19.09c0.41-0.03 2.22 1.48 2.26 1.87 0.04 0.37-0.25 0.4-0.47 0.36 -1.02-0.16-1.7-0.86-2.27-1.62C91.51 19.32 92.02 19.23 92.27 19.09z"/><path fill-rule="evenodd" clip-rule="evenodd" fill="#FFFFFF" d="M68.27 13.65c0.02 0.02 0.05 0.03 0.07 0.05 -0.03-0.01-0.06-0.03-0.08-0.04L68.27 13.65z"/><path fill-rule="evenodd" clip-rule="evenodd" fill="#F0EEE9" d="M74 25.38c-1.18 0.12-2.24-0.36-3.34-0.65 -1.84-0.49-3.75-0.77-5.54-1.47C68.25 23.3 71.26 23.79 74 25.38z"/><path fill-rule="evenodd" clip-rule="evenodd" fill="#DCD3C5" d="M59.84 22.74c-2.91-0.08-5.76 0.33-8.61 0.84 1.41-0.88 3.05-0.82 4.6-0.99C57.14 22.43 58.52 22.33 59.84 22.74z"/><path fill-rule="evenodd" clip-rule="evenodd" fill="#F2E6C6" d="M75.4 24.27c-0.19 0.08-0.29 0.16-0.35 0.14 -0.13-0.05-0.24-0.16-0.36-0.24 0.08-0.05 0.17-0.15 0.23-0.14C75.05 24.06 75.17 24.15 75.4 24.27z"/><path fill-rule="evenodd" clip-rule="evenodd" fill="#F2E6C6" d="M76.71 24.79c-0.01 0.03-0.02 0.05-0.03 0.08 -0.02-0.04-0.04-0.07-0.06-0.11C76.65 24.77 76.68 24.78 76.71 24.79z"/><path fill-rule="evenodd" clip-rule="evenodd" fill="#F2E6C6" d="M76 24.55c-0.01 0.03-0.02 0.08-0.03 0.08 -0.03 0-0.07-0.02-0.1-0.03 0.01-0.03 0.02-0.08 0.03-0.08C75.93 24.52 75.97 24.54 76 24.55z"/><path fill-rule="evenodd" clip-rule="evenodd" fill="#F2E6C6" d="M74.11 23.82c0 0.03 0 0.06-0.01 0.07 -0.02 0.02-0.06 0.02-0.09 0.02 0-0.04 0.01-0.08 0.01-0.13C74.05 23.8 74.08 23.81 74.11 23.82z"/><path fill-rule="evenodd" clip-rule="evenodd" fill="#C7B976" d="M64.45 24.68c2.51 0.07 4.92 0.63 7.28 1.58 -0.53 0.44-1.3 0.12-1.8 0.59 -0.97 0.09-1.93 0.19-2.9 0.28 -4.01 0.38-7.84-0.73-11.72-1.45 0.08-0.26 0.52-0.24 0.45-0.68 -0.69 0.22-1.45-0.01-2.11 0.39 -0.65 0.22-1.32 0.24-2 0.24 -1.93 0-3.67 0.62-5.31 1.59 -0.34-0.54 0.04-0.68 0.38-0.8 2.85-1.04 5.73-1.96 8.78-2.17 1.3-0.09 2.6-0.46 3.92-0.15C61.03 24.84 62.66 25.47 64.45 24.68z"/><path fill-rule="evenodd" clip-rule="evenodd" fill="#B18950" d="M97.06 49.42c-0.4-1.7-0.76-3.41-1.22-5.09 -1.93-7.15-5.73-12.94-11.88-17.28 -2.54-1.79-4.95-3.76-7.72-5.18 -6.29-3.21-13.06-4.94-19.94-6.25 -4.75-0.91-9.37-2.36-14.12-3.25 -2.59-0.49-5.21-0.73-7.84-0.83 -0.61-0.02-1.09-0.13-1.4-0.68 0.48-0.03 0.95-0.06 1.43-0.08 2.52-0.11 4.99 0.42 7.5 0.51 3.67 0.73 7.33 1.49 10.96 2.38 7.4 1.81 14.88 3.31 21.97 6.22 3.67 1.51 7.18 3.31 10.37 5.68 0.22 0.17 0.45 0.42 0.7 0.45 3.23 0.37 4.66 2.9 6.01 5.29 1.32 2.34 3.24 4.25 4.34 6.73 0.97 2.19 1.51 4.42 1.6 6.82C97.87 46.44 98.02 48 97.06 49.42z"/><path fill-rule="evenodd" clip-rule="evenodd" fill="#CFB496" d="M41.86 11.27c-2.5-0.08-4.98-0.62-7.5-0.51 -0.48 0.02-0.95 0.05-1.43 0.08 -2.12-0.38-4.26-0.66-6.43-0.56 2.12-0.77 4.33-0.51 6.5-0.43 2.61 0.1 5.25 0.16 7.78 0.95C41.16 10.92 41.57 10.96 41.86 11.27z"/><path fill-rule="evenodd" clip-rule="evenodd" fill="#F0EEE9" d="M64.45 24.68c-1.8 0.79-3.43 0.17-5.04-0.59C61.1 24.24 62.83 24 64.45 24.68z"/><path fill-rule="evenodd" clip-rule="evenodd" fill="#F0EEE9" d="M53.65 25.38c0.66-0.4 1.42-0.17 2.11-0.39 0.07 0.44-0.37 0.43-0.45 0.68C54.75 25.66 54.15 25.81 53.65 25.38z"/><path fill-rule="evenodd" clip-rule="evenodd" fill="#929135" d="M85.27 31.45c0.1 0.15 0.19 0.29 0.29 0.44C85.47 31.74 85.37 31.59 85.27 31.45z"/><path fill-rule="evenodd" clip-rule="evenodd" fill="#949035" d="M86.02 32.36c0.08 0.09 0.16 0.18 0.24 0.27C86.19 32.53 86.1 32.45 86.02 32.36z"/><path fill-rule="evenodd" clip-rule="evenodd" fill="#929135" d="M85.55 31.88c0.08 0.08 0.17 0.17 0.25 0.25C85.72 32.05 85.64 31.96 85.55 31.88z"/><path fill-rule="evenodd" clip-rule="evenodd" fill="#929135" d="M84.57 30.71c0.08 0.08 0.15 0.16 0.23 0.24C84.72 30.87 84.64 30.79 84.57 30.71z"/></svg>
