<svg xmlns="http://www.w3.org/2000/svg" width="38.4" height="34.5" viewBox="0 0 38.4 34.5"><path fill="#565656" d="M22.8 3.5c-9.5-.9-20 2.8-22.3 13-1.6 6.9 3.7 12.6 9.5 15.4 6 2.9 13.5 3.3 19.5.3 7.1-3.5 9.6-13.8 4-19.7-.9-1-2.4.5-1.5 1.5 6.2 6.4.5 15.5-6.6 17.6-5 1.4-10.6.3-15.2-1.9-4.9-2.4-8.4-7-7.6-12.6C3.8 7.7 14.9 4.9 22.8 5.6c1.4.1 1.3-1.9 0-2.1z"/><path fill="#565656" d="M9.5 17.7c2.2 1.6 3.8 3.4 5 5.8.6 1.1 2.5 1.5 3.3.4 5.6-7.2 12.1-14.5 19.5-19.8 2.2-1.5.1-5.2-2.1-3.6-7.8 5.6-14.5 13-20.4 20.5 1.1.1 2.2.3 3.3.4-1.6-3-3.7-5.4-6.5-7.3-2.2-1.5-4.3 2.1-2.1 3.6z"/></svg>
