<svg xmlns="http://www.w3.org/2000/svg" width="731.2" height="128.2" viewBox="0 0 731.2 128.2"><path fill="#009C9E" d="M722.6 106.6c-2.2 13.9-15.4 23.4-29.4 21.3C476 96 255.2 96 38 127.9c-13.9 2-27.1-7.5-29.4-21.3C5.8 89.1 3.1 71.7.3 54.3-1.9 40.4 8.2 27.2 22.9 25 250.1-8.3 481-8.3 708.3 25c14.6 2.1 24.8 15.4 22.5 29.2-2.7 17.5-5.5 34.9-8.2 52.4z"/><path fill="none" stroke="#FFF" stroke-width="3.969" stroke-linecap="round" stroke-miterlimit="10" stroke-dasharray="0,9.0906" d="M717 99.6c-2 12.6-14 21.2-26.7 19.4-214.7-31.7-432.8-31.7-647.5 0-12.7 1.9-24.6-6.8-26.7-19.4-2.1-13.5-4.3-27-6.4-40.5-2-12.6 7.1-24.6 20.3-26.5C253.1-.3 479.9-.3 703 32.6c13.2 1.9 22.3 14 20.3 26.5-2 13.5-4.2 27-6.3 40.5z"/><g fill="#FFF"><path d="M124.9 54.7c5.2-.3 9 1.6 10 4.1.1 1.1.2 1.6.3 2.7 2.2 16.8.6 25.2.3 25.6-.2.3-1.8 2.6-5.9 4.3-.5.1-.8.1-1.3.2-4.5.4-6.8.2-6.9-.4-.2-3.4.3-5.5.9-5.5h.3c2.4.2 3.9.3 4.6.2h.3c2.3-.3 3.3-2 2.9-5 0-1.1-.1-1.6-.1-2.7-1.6 1.1-3.7 1.9-6.3 2.2-1.6.2-5.4-1.3-8-4.3-1-1.2-1.8-3.4-2.1-5.1-1.2-6 .9-11.8 5.2-14.2 1.8-1.3 4.1-2 5.8-2.1zm-4.8 13.6c.1 3.3 2 5.7 4.4 6.2h.3c2-.3 3.8-2.4 5.2-6.4-.3-2.3-.5-3.5-.8-5.8-.2-1.6-1.8-2.2-4.7-1.8-.2 0-.3 0-.5.1-2.3.2-4.1 3.3-3.9 7.7zM151.7 51c5.1-.6 9.4 2.8 10.7 8.7.2.7.4 1.8.6 2.6 1.1 4.9-1.6 10.2-6 12.3-1.4.6-2.7.9-3.4 1-5.1.6-8.4-2-10-8-.2-1.3-.2-1.9-.4-3.2-.4-3.5.5-7.2 2.8-10.6 1.1-1.5 3-2.5 5.7-2.8zm-3 14.1c.6 3.5 2.9 5.6 4.5 5.1 2.6-.8 4.1-4.2 3.7-8-.3-2.6-1.7-4.6-4.3-6h-.3c-1.4.2-2.9 2.2-3.5 5.5-.2 1.7-.2 2.9-.1 3.4zM178.3 48c5.1-.5 9.3 2.9 10.5 8.9.1.7.4 1.8.5 2.6 1 4.9-1.7 10.2-6.1 12.2-1.4.6-2.7.8-3.5.9-5.1.5-8.3-2.2-9.9-8.1-.1-1.3-.2-1.9-.4-3.2-.4-3.5.6-7.2 3-10.6 1.2-1.5 3.2-2.4 5.9-2.7zm-3.2 14.1c.6 3.5 2.8 5.7 4.4 5.2 2.6-.8 4.2-4.2 3.8-7.9-.3-2.6-1.7-4.6-4.2-6h-.3c-1.4.2-2.9 2.2-3.5 5.5-.3 1.4-.3 2.7-.2 3.2zM210.6 30.7c1.7-.1 2.5-.2 4.1-.3.4 0 .6.2.6.5.9 12 4.8 31.6 2.2 36.1-1.1 1.9-8 3.4-11.1 3.7-2.4.2-5.7-.6-7.8-2.5-2.7-2.4-4.2-6.3-4.4-8.7 0-.2 0-.3-.1-.5-.6-6.2 2.6-10.3 8.4-12.9.9-.4 1.5-.7 1.9-.7 2.3.3 3.5.5 5.9.8-.5-5.4-.7-8.2-1.2-13.6-.1-1.2.4-1.8 1.5-1.9zm-10.5 27.5c1.1 4.2 2.6 6 3.3 6.2.8.2 2.1 1.1 3.1 1.1 2.5-.2 4-1.4 4.6-3.6-.3-3.8-.5-5.8-.8-9.6-1-1-2.6-1.4-4.8-1.2-.4 0-.6.1-1.1.1-2.8 1.3-4.1 2.9-3.9 4.9-.2.8-.2 1.3-.4 2.1zM242.7 42.4s1.4.1 3.6 0c.1 0 1.9-.6 2.2-.4.1.1.5.5.6.5.5.5 0 4.6.1 5.9.3 5 .5 7.5.8 12.6.5 7.4-.2 11.7-1.6 13-2.1 2-4.2 3.5-6.2 3.6-.6 0-1 .1-1.6.1-3.4 0-5.2-.2-5.2-.7-.2-3.3.2-5.2.7-5.2 2.2.1 4 .5 4.6.5 2.5-.2 3.5-2.3 3.4-6.1-.1-2.6-.1-5.4-.3-8.3-.2-3.3-.3-5-.6-8.3-.1-1.8-1-4.6-.7-6.4 0-.2.1-.7.2-.8zm1.7-14.6c1.2-.1 2.3.6 3.2 2 .1 1 .1 1.4.2 2.4-.7 1.5-1.7 2.2-2.9 2.3-2.4.2-3.6-.7-3.8-2.7 0-.3 0-.5-.1-.8-.1-1.6.9-2.7 3.1-3.2h.3zM274.3 40.3c1.1-.1 2 .4 2 .7.4 13.7.6 22.4.3 23-.2.3-1.1.6-1.6.6-1.5.1-2.3.1-3.8.2-.1-.4-.2-.6-.3-1-2.1.8-3.6 1.3-4.5 1.3-4.8.3-7.8-2.6-8.9-8.6 0-1.1.1-1.6.1-2.7-.3-4.7-.4-7-.7-11.8 0-.4.2-.6.5-.6 2.2-.1 3.3-.2 5.5-.3.3 5 .4 7.5.7 12.6.2 3.7 2 5.3 2.2 5.5 0 0 .1.3.3.2 3-.4 4.6-3.1 4.5-6.7 0-4.1.1-7.8 0-10.7 0-.5 0-.8-.1-1.4.5 0 .8 0 1.4-.1.6.1 1.5-.2 2.4-.2zM290.7 39.8h.3c3.4-.1 6.6 1.1 9.4 3.7v.3c-1 2-2.1 3.6-2.9 3.8-.3.1-2.2-.8-5.3-2.5h-.3c-.1 0-.7.1-1.6.3v.8c.2.6 3.5 2.1 6.7 4.8 1.7 1.5 2.6 4.1 2.7 6.1v.8c.1 2.2-1.7 4.1-5.2 5.8-1 .1-1.5.2-2.4.4-2.6.1-5.6-1.2-8.8-3.9.9-1.6 1.4-2.5 2.3-4.1h.5c.5 0 2.1.7 5 2.2.3.2.8.3 1.1.2.9-.2 1.8-1.5 1.5-2.2-.2-.7-4.9-2.6-7.9-5.6-1-1-1.5-2.7-1.5-3.1v-.8c-.2-3.5 3.7-5.5 4.4-6.3.2-.2.8-.6 2-.7zM313.8 24c.3.1.6.3.8.3 0 1.5.1 2.2.1 3.7 0 1-.2 1.7-.2 1.9-.1.6.3 1.8.3 2.4 0 .9 0 1.3.1 2.1 0 .9 0 2.4-.1 4.5 2.3-.1 3.5-.1 5.8-.2 0 1.9.1 2.9.1 4.8 0 .4-.2.6-.5.6h-1.4c-.9 0-2.3.1-4.1.4.1 3.4.1 5.1.2 8.6 0 1.4.3 3 .7 4.8 1.8-.7 2.7-1 4.6-1.7.8 1.2 1.2 1.7 2 2.9v1.1c-1.9 2-4.1 3-6.7 3.1h-.8c-2.6.1-4.3-1.6-5-4.9 0-1.5-.1-2.2-.1-3.7-.1-2.1-.3-5.4-.6-9.9-1 0-1.5 0-2.5.1-1.1 0-1.7-.5-1.7-1.5 0-1.3-.1-1.9-.1-3.2 0-.4 4-.5 4.6-1.2.2-.3.2-2.2.2-2.7.1-1.6-.4-3.8-.5-5.3-.1-2.4-.1-3.5-.2-5.9 0-.7 2.5-1.6 5-1.1zM357.1 38.5c5.2.4 8.7 2.7 9.3 5.3v2.7c0 17-2.6 25.1-3 25.4-.2.2-2.1 2.3-6.4 3.5h-1.3c-4.5-.2-6.8-.7-6.7-1.3.2-3.4 1-5.4 1.6-5.4h.3c2.3.5 3.9.8 4.6.8h.3c2.3 0 3.5-1.5 3.5-4.6.1-1.1.1-1.6.2-2.7-1.8.9-3.9 1.4-6.5 1.4-1.6 0-5.2-2-7.4-5.3-.9-1.3-1.3-3.6-1.4-5.3-.4-6.2 2.4-11.5 6.9-13.5 1.9-.7 4.3-1.1 6-1zm-6.5 12.9c-.3 3.3 1.2 5.9 3.6 6.7h.3c2.1 0 4-1.9 6-5.7v-5.9c0-1.6-1.5-2.4-4.4-2.4h-.5c-2.4.1-4.6 2.9-5 7.3zM384.1 38.3c5.1.1 8.9 4 9.4 10 .1.8.2 1.8.2 2.7.4 5-2.9 10-7.5 11.4-1.4.5-2.8.5-3.5.5-5.1 0-8-3.1-8.9-9.2v-3.2c0-3.6 1.4-7.1 4.1-10.1 1.5-1.4 3.5-2.1 6.2-2.1zm-4.7 13.6c.2 3.5 2.1 6 3.8 5.7 2.6-.5 4.6-3.7 4.7-7.4 0-2.6-1.1-4.8-3.5-6.5h-.3c-1.5 0-3.1 1.8-4.1 5-.5 1.5-.7 2.7-.6 3.2zM408.7 23.7c.3.1.6.3.8.3 0 1.5-.1 2.2-.1 3.7 0 1-.3 1.7-.3 1.9-.1.6.2 1.8.2 2.4 0 .9 0 1.3-.1 2.1 0 .9-.1 2.4-.4 4.5 2.3.1 3.4.1 5.8.1-.1 1.9-.1 2.9-.1 4.8 0 .4-.2.5-.6.5h-1.4c-.9 0-2.3 0-4.1.2-.1 3.4-.1 5.1-.2 8.6 0 1.4.1 3 .4 4.8 1.9-.6 2.8-.9 4.7-1.5.7 1.2 1.1 1.8 1.8 3v1.1c-2 1.9-4.2 2.8-6.8 2.8h-.8c-2.6-.1-4.2-1.8-4.8-5.2 0-1.5 0-2.2.1-3.7 0-2.1 0-5.4-.1-9.9h-2.5c-1.1 0-1.6-.6-1.6-1.6 0-1.3 0-1.9.1-3.2 0-.4 4.1-.3 4.7-1 .3-.3.3-2.2.3-2.7.2-1.6-.2-3.8-.2-5.4 0-2.4.1-3.5.1-5.9.1-.5 2.6-1.3 5.1-.7zM449.7 39.9c4.9.2 8.3 3.5 10.2 9.9 0 .5 0 .8-.1 1.3-1.9 1-12.6 2.7-14.7 5.5-.3.4 1.4 2.1 4.2 3.4h.6c.9 0 3.1-1.2 6.7-3.7h.8c.2 0 .9 1 2.3 3.1v.5c-3.2 3.6-7 5.3-11.4 5.1h-.5c-3.8-.2-7.9-3.4-9.4-8.2-.7-2.1-.6-4.3-.6-5.4.2-3.9 2.4-7.9 6.5-10.5 1.3-.8 3.3-1.1 5.4-1zm-5.9 10.2c0 .7 0 1.1-.1 1.9 4.1-1.4 6.1-2.1 10.2-3.5-.7-2.3-1.9-3.6-3.4-3.6h-.8c-3.8.9-5.8 2.7-5.9 5.2zM466 40.7c.8.1 1.1.2 1.9.4.4 0 .9-.2 1.1-.2.2 0 .7.3 1.1.3.7 0 1 .1 1.6.1 1.6 3.8 4.3 7.6 4.7 7.5 1.8-.2 5.9-6.7 6.2-6.9 2.2.1 3.3.2 5.5.4v.3c-.1 1.2-8 7.5-8.4 10.4-.4 3.8 7.1 12.7 7 13.3v.3c-2.4-.2-3.6-.2-5.9-.4-.2 0-1.6-2.8-4.4-8.3-.4-.3-.6-.5-1-.9-2.4 3.5-3.6 5.3-5.9 8.8-1.1-.2-1.6-.3-2.7-.4-1.3-.1-1.9-.1-3.2-.2v-.8c3.4-4.6 5.1-7 8.5-11.6-4.3-6.8-6.6-11.7-6.4-11.9 0 0 .3 0 .3-.2zM505.3 43.8c2.8.2 5.5 1.8 8.1 4.7 0 .3 0 .5-.1.8-1.4 2-2.6 3.1-3 3-2.2-.9-4.5-3.3-5.5-3.4-3.1-.3-5.4 1.8-6.8 6.2 0 .4 0 .6-.1 1.1.1 4.3 1.7 6.6 5 6.8 1.3.1 3-.8 5.1-2.5h.5c.4.1 1.5 1.1 3 3.2v.5c-2.5 2.8-6.9 3.6-7.4 4 0 0-.7.4-1.9.4-4.3 0-8.3-3.7-9.4-9-.3-1.6-.3-3-.2-4 0-.6.1-1 .1-1.6.2-2.3 2.2-6 5.8-8.7 1.6-1.2 4.2-1.6 6.8-1.5zM522.6 45c.2.1.3.2.5.3.7-.1 1-.1 1.7-.1 1.1.2 1.6.5 1.6.9 0 .5-.1.8-.1 1.3-.6 6.6-1.6 11.6-1.8 14.1-.1 1 .1 2.4-.1 3.8-.1 1.3-.2 1.9-.3 3.2-.1.9-.4 1.4-1 1.5-.3 0-.5 0-.8-.1-.7-.1-2.1-.6-2.9-.5-.2 0-.8.2-1.4.1-.2-.3-.3-.5-.5-.8.1-1.5.2-2.2.3-3.7.4-4.5 1.1-10.8 1.9-18.9.1-.7 1.1-1.1 2.9-1.1zm1.5-14.4c2.2.3 3.5 1.8 3.3 3.8-.2 2.1-1.5 3.1-3.9 2.9-1.2-.1-2.2-.9-2.8-2.4.1-.6.1-1 .1-1.6.6-1.9 1.8-2.9 3.3-2.7zM543.3 31.9c.3.1.6.3.8.4-.1 1.5-.2 2.2-.4 3.7-.1 1-.4 1.7-.4 1.8-.2.6.1 1.8 0 2.4-.1.8-.1 1.3-.2 2.1-.1.9-.3 2.4-.7 4.5 2.3.2 3.4.3 5.7.6-.2 1.9-.3 2.9-.5 4.8 0 .4-.2.5-.6.5-.5-.1-.8-.1-1.4-.1-.9-.1-2.3-.1-4.1-.2-.3 3.4-.5 5.1-.8 8.5-.1 1.4-.1 3 .1 4.8 1.9-.5 2.9-.7 4.8-1.1.6 1.2.9 1.9 1.6 3.1 0 .4-.1.6-.1 1.1-2.1 1.8-4.4 2.5-7 2.2-.3 0-.5 0-.8-.1-2.6-.3-4.1-2.1-4.4-5.5.1-1.5.2-2.2.4-3.7.2-2.1.4-5.4.7-9.9-1-.1-1.5-.1-2.5-.2-1.1-.1-1.6-.7-1.5-1.8.1-1.3.2-1.9.3-3.2 0-.4 4.1 0 4.7-.6.3-.3.4-2.1.5-2.6.3-1.6.1-3.8.2-5.4.2-2.3.3-3.5.6-5.9 0-.4 2.6-1.1 5-.2zM558.6 48.5c.2.1.3.2.5.3.7 0 1-.1 1.7-.1 1.1.2 1.6.6 1.6 1-.1.5-.1.8-.1 1.3-.7 6.6-1.9 11.6-2.1 14-.1 1 0 2.4-.1 3.7-.1 1.3-.2 1.9-.3 3.2-.1.9-.4 1.4-1 1.5-.3 0-.5-.1-.8-.1-.7-.1-2.1-.6-2.9-.6-.2 0-.8.2-1.4.1-.2-.3-.3-.5-.4-.9.2-1.5.2-2.2.4-3.7.5-4.4 1.3-10.8 2.3-18.9-.2-.5.7-.9 2.6-.8zm1.8-14.4c2.2.4 3.4 1.9 3.2 3.9-.2 2.1-1.5 3.1-3.9 2.8-1.2-.1-2.1-.9-2.8-2.4.1-.6.1-1 .2-1.6.5-2 1.8-2.9 3.3-2.7zM571.8 50.2c2 .2 2.9.3 4.9.6.4.1.5.3.5.6-.2.5-.2.8-.4 1.3h.3c2.6-1 4.5-1.4 5.7-1.2.8.1 1.1.1 1.9.2 4.5.6 6.5 3.4 5.9 8.5-1.4 10.9-2.6 16.4-3.2 16.3-1.8-.2-2.7-.3-4.6-.6-.4 0-.5-.2-.5-.6.1-.4.1-.6.1-1.1 0-.2.1-.3.3-.2-.1-.2-.1-.3-.2-.6.1-.7.1-1.1.2-1.9 0-.4.2-.7.4-1-.1-.2-.1-.3-.2-.6.5-2.7.9-5.1 1.1-7.1.4-3.5.3-5.4-.4-5.4-.5-.1-.8-.1-1.4-.2-1.5-.2-4.9.9-5.8 2.5-.4.8-1.7 5.6-2.1 10.5-.1.9 0 2.5-.2 4.3v.3c-2.3-.3-3.4-.4-5.6-.7 0-.6-.1-.8-.1-1.4.1-.5.3-.7.4-.8 0 0-.2-.5-.2-.8-.7-5.8 1.8-13.6 2.3-17.5v-2.7c.3-.4.6-.7.9-.7zM611.3 55.2c5.1 1.1 8.3 3.9 8.5 6.6-.2 1.1-.2 1.6-.4 2.7-2.4 16.8-6.2 24.5-6.5 24.8-.3.2-2.5 2-6.9 2.6-.5-.1-.8-.1-1.3-.2-4.4-.8-6.6-1.6-6.5-2.2.7-3.3 1.7-5.2 2.3-5.1h.3c2.2.8 3.7 1.3 4.4 1.4h.3c2.3.3 3.7-1 4.1-4 .2-1 .4-1.6.6-2.6-1.9.7-4.1.8-6.6.5-1.6-.2-4.9-2.7-6.6-6.3-.7-1.4-.8-3.8-.7-5.5.5-6.1 4-11.1 8.8-12.3 2.2-.7 4.6-.8 6.2-.4zm-8.2 11.9c-.8 3.3.4 6.1 2.6 7.1h.3c2 .3 4.3-1.3 6.7-4.8.3-2.3.5-3.5.8-5.8.2-1.6-1.1-2.6-4-3-.2 0-.3 0-.5-.1-2.3-.3-4.9 2.3-5.9 6.6z"/></g><path fill-rule="evenodd" clip-rule="evenodd" fill="#FFF" d="M98.2 56.3c-3-.7-6.2-1.6-9.3-2.3-.3-.8 0-1.9.5-2.4 3.1 1.4 6.2 2.4 9.2 4 0 .1-.2.4-.4.7zm-.2-.6c-2.7-1.5-5.7-2.4-8.5-3.7-.1.6-.3 1.2-.1 1.7 2.8.5 5.6 1.4 8.4 2 .1.1.1 0 .2 0zM99.8 68.8c-3.5.7-7.2 1.4-10.8 2.2-.7-.4-.9-1.2-.7-1.8 4-.3 7.6-.8 11.5-1 .1.1.1.3 0 .6zm-.5-.3c-3.5.1-7.1.6-10.7.9.1.4.2.9.7 1.2 3.2-.8 6.5-1.3 9.8-2 .1 0 .1-.1.2-.1zM102.7 82c-1.8 2.5-3.7 5-5.6 7.7-.8-.2-1.7-1.1-2-1.8 2.5-2.2 4.5-4.6 7-6.6.2.1.4.4.6.7zm-.6-.1s-.1 0 0 0c-2.3 1.8-4.3 4.1-6.5 6.1.5.5.9 1 1.5 1.1 1.5-2.4 3.3-4.7 5-7 0 0-.1-.1 0-.2z"/><g><path fill-rule="evenodd" clip-rule="evenodd" fill="#FFF" d="M632.6 82.7c2.5 1.8 5.2 3.7 7.8 5.6 0 .9-.7 1.8-1.3 2.1-2.4-2.5-4.9-4.5-7.1-7.1 0-.3.3-.5.6-.6zm0 .6c-.1 0-.1 0 0 0 2 2.3 4.4 4.3 6.6 6.6.4-.5.7-1 .7-1.6-2.4-1.5-4.7-3.3-7.1-5h-.2zM635.7 70.4c3.5.6 7.2 1.3 10.9 2 .5.6.4 1.5 0 1.9-3.8-1.2-7.4-2-11-3.3-.3-.2-.1-.4.1-.6zm.3.5c3.3 1.2 6.9 2 10.3 3 0-.5.1-.9-.2-1.4-3.2-.4-6.5-1.1-9.8-1.7-.1 0-.2.1-.3.1zM637.8 57c2.6-1.7 5.3-3.3 8-5.1.7.5 1.2 1.6 1.2 2.5-3.1 1.1-5.9 2.6-8.9 3.6-.2-.2-.3-.6-.3-1zm.5.4c2.8-.8 5.5-2.3 8.3-3.3-.3-.6-.5-1.3-1-1.6-2.3 1.7-4.8 3.1-7.2 4.7 0 0 0 .2-.1.2z"/></g></svg>